<svg width="21" height="22" viewBox="0 0 21 22" fill="none" xmlns="http://www.w3.org/2000/svg">
<path d="M9.54953 1.40646C9.85003 0.487553 11.15 0.487551 11.4505 1.40645L13.2746 6.98458C13.4091 7.39568 13.7926 7.67376 14.2251 7.67376H19.9065C20.9195 7.67376 21.2904 9.00676 20.4231 9.53001L16.2043 12.0751C15.7951 12.322 15.6178 12.8239 15.7811 13.2731L18.3137 20.2378C18.6567 21.1808 17.5521 21.985 16.76 21.3689L11.1139 16.9775C10.7528 16.6966 10.2472 16.6966 9.88606 16.9775L4.23998 21.3689C3.44791 21.985 2.34333 21.1808 2.68625 20.2378L5.21888 13.2731C5.38221 12.8239 5.20488 12.322 4.79565 12.0751L0.576932 9.53001C-0.290413 9.00676 0.0805351 7.67376 1.09349 7.67376H6.77491C7.20743 7.67376 7.59094 7.39568 7.72537 6.98458L9.54953 1.40646Z" fill="#FEBD57"/>
</svg>
